<?xml version="1.0" encoding="utf-8"?>
<!DOCTYPE svg PUBLIC "-//W3C//DTD SVG 1.0//EN" "http://www.w3.org/TR/2001/REC-SVG-20010904/DTD/svg10.dtd">
<svg version="1.0" xmlns="http://www.w3.org/2000/svg" width="530px" height="530px" viewBox="0 0 530 530" preserveAspectRatio="xMidYMid meet">
 <g fill="#ffffff" stroke="#fbfbfb" stroke-width="1.035">
  <path d="M172.3 479.6 c-1.2 -0.2 -3.1 -1.3 -4.1 -2.6 -1.8 -1.9 -2 -3.9 -2 -17.5 0 -20.5 -0.5 -20 18.6 -20.4 l14 -0.4 0 -12.3 0 -12.2 -87.7 -0.3 -87.8 -0.3 -5.4 -2.5 c-6.7 -3 -12.8 -9.4 -15.4 -16.3 -1.9 -4.9 -2 -10.1 -2 -163.5 l0 -158.4 2.5 -5.4 c3 -6.7 9.4 -12.8 16.3 -15.4 5 -1.9 11.5 -2 245.7 -2 234.3 0 240.8 0.1 245.7 2 6.8 2.6 13.3 8.7 16.3 15.4 l2.5 5.4 0 158.4 c0 153.3 -0.1 158.6 -2 163.5 -2.6 6.8 -8.7 13.3 -15.4 16.3 l-5.4 2.5 -87.7 0.3 -87.8 0.3 0 12.2 0 12.3 14 0.4 c19.2 0.4 18.6 -0.1 18.6 20.5 0 14.7 -0.1 15.6 -2.4 17.8 l-2.4 2.4 -92.3 0.1 c-50.7 0.1 -93.4 0 -94.5 -0.3z m175.6 -20 l0 -4.1 -82.8 0 -82.8 0 0 4.1 0 4.1 82.8 0 82.8 0 0 -4.1z m-33.1 -33.1 l0 -12.4 -49.7 0 -49.7 0 0 12.4 0 12.4 49.7 0 49.7 0 0 -12.4z m195.2 -32.5 c3.4 -3.4 3.5 -3.7 3.5 -12.4 l0 -8.9 -248.4 0 -248.4 0 0 8.9 c0 8.7 0.1 9 3.5 12.4 l3.5 3.5 241.4 0 241.4 0 3.5 -3.5z m3.5 -179.3 l0 -141.4 -3.5 -3.5 -3.5 -3.5 -241.4 0 -241.4 0 -3.5 3.5 -3.5 3.5 0 141.4 0 141.4 248.4 0 248.4 0 0 -141.4z"/>
 </g>
</svg>