<?xml version="1.0" encoding="utf-8"?>
<!DOCTYPE svg PUBLIC "-//W3C//DTD SVG 1.0//EN" "http://www.w3.org/TR/2001/REC-SVG-20010904/DTD/svg10.dtd">
<svg version="1.0" xmlns="http://www.w3.org/2000/svg" width="500px" height="499px" viewBox="0 0 500 499" preserveAspectRatio="xMidYMid meet">
 <g fill="#ffffff" stroke="#ffffff" stroke-width="0.977">
  <path d="M3.5 497.2 c-0.9 -1 -2.1 -3.2 -2.5 -5.1 -0.6 -2.1 -1 -90.9 -1 -242.4 0 -258.1 -0.3 -243.5 5 -247.2 1.3 -0.9 3.6 -1.6 5.3 -1.6 2.6 0 29.8 26.9 245.8 242.9 l243 243 0 4 c0 2.8 -0.6 4.5 -2.2 6.1 l-2.2 2.1 -244.7 0 c-237.3 0 -244.6 -0.1 -246.3 -1.9z m463.3 -16.4 c0 -1.2 -77.5 -78.4 -78.6 -78.4 -0.6 0 -5.7 4.7 -11.2 10.4 -5.7 5.7 -11.6 10.9 -13.4 11.7 -6.1 2.6 -12 -1.8 -12 -9 0 -3.3 1 -4.6 11.7 -15.4 l11.8 -11.7 -21 -21 -21 -21 -12.2 11.9 c-10.3 10.1 -12.6 11.9 -15.1 11.9 -6.1 0 -10.8 -5.8 -9.5 -11.3 0.4 -1.5 5.8 -7.8 12.1 -14.3 l11.3 -11.6 -20.4 -20.4 c-11.3 -11.3 -20.9 -20.5 -21.4 -20.5 -0.6 0 -6.1 5.1 -12.3 11.2 -10.9 10.7 -11.6 11.2 -15.5 11.2 -5.7 0 -8.9 -3.2 -8.9 -8.8 0 -3.9 0.6 -4.7 11.7 -16 l11.6 -11.9 -20.9 -20.9 -21 -20.9 -11.4 11.3 c-7 6.8 -12.7 11.6 -14.4 12.1 -6.2 1.5 -12.4 -4.9 -10.8 -11 0.4 -1.6 5.4 -7.5 12 -14.3 l11.3 -11.4 -20.9 -21 -20.9 -20.9 -11.9 11.6 c-10.8 10.6 -12.3 11.7 -15.4 11.7 -7.2 0 -11.6 -6 -9 -12 0.8 -1.8 6.1 -7.7 11.7 -13.4 5.7 -5.6 10.4 -10.6 10.4 -11.2 0 -0.6 -9.2 -10.2 -20.5 -21.5 l-20.4 -20.4 -11.5 11.3 c-8 7.8 -12.5 11.5 -14.6 11.9 -5.6 1.3 -10.9 -3.2 -11 -9.1 0 -2.9 1.4 -4.7 11.9 -15.4 l11.9 -12 -39.7 -39.8 -39.7 -39.7 0 224.4 0 224.3 223.6 0 c123 0 223.6 -0.3 223.6 -0.7z"/>
  <path d="M90.1 415 c-1.2 -0.5 -2.9 -2.1 -3.9 -3.6 -1.7 -2.5 -1.8 -8 -2.1 -100.9 -0.2 -67.9 0 -99.2 0.8 -101.8 1.3 -4.4 5.1 -7.6 9.2 -7.6 2.7 0 13.4 10.4 103.8 100.8 l100.9 100.9 0 4.1 c0 3.3 -0.5 4.5 -3 6.5 l-3 2.5 -100.2 -0.1 c-55.6 0 -101.3 -0.4 -102.4 -0.9z m176.5 -18.4 c0 -0.4 -36.7 -37.4 -81.5 -82.2 l-81.5 -81.5 0 82.3 0 82.2 81.5 0 c44.8 0 81.5 -0.3 81.5 -0.8z"/>
  <path d="M433.5 380.5 c-2 -0.7 -4.8 -2.1 -6.3 -3.3 -1.6 -1.1 -65.3 -64.6 -141.6 -141 l-138.9 -139 -14.5 -43.6 c-13.7 -41.4 -14.4 -43.7 -13.1 -46.7 1.3 -3.1 5.3 -6 8.5 -6 1 0 21.1 6.4 44.7 14.4 l43 14.3 139.4 139.3 c101.8 101.7 139.9 140.4 141.5 143.7 1.5 2.9 2.3 6.8 2.6 11.8 0.7 12.1 -1.4 15.4 -21.6 35.7 -19.3 19.3 -23.1 21.8 -33.9 21.7 -3.5 0 -7.9 -0.6 -9.9 -1.3z m30.6 -33.6 l16.4 -16.3 0 -4.7 c0 -4.8 0 -4.8 -11.4 -16.4 -6.3 -6.3 -11.8 -11.6 -12.4 -11.6 -1.4 0 -41.6 40.2 -41.6 41.6 0 0.6 5.3 6.2 11.6 12.4 11.5 11.3 11.7 11.4 16.3 11.4 l4.6 0 16.5 -16.4z m-28 -70.5 l-7.3 -7.3 -21.2 21.2 -21.3 21.3 7.3 7.3 7.3 7.3 21.2 -21.2 21.3 -21.3 -7.3 -7.3z m-41.3 1.3 c11.2 -11.1 20.3 -20.7 20.3 -21.3 0 -0.5 -44.6 -45.6 -99.1 -100.1 l-99.1 -99.1 -21.2 21.3 -21.3 21.2 99.1 99.1 c54.5 54.5 99.5 99.1 100.1 99.1 0.5 0 10.1 -9.1 21.2 -20.2z m-211.6 -212.2 c12.1 -12.1 19.1 -19.8 18.6 -20.4 -1.3 -1.1 -58.1 -19.9 -58.6 -19.4 -0.6 0.6 19 59.4 19.8 59.4 0.4 0 9.5 -8.8 20.2 -19.5z"/>
  <path d="M335.6 230.4 c-0.9 -0.5 -2.3 -2.3 -3.2 -3.9 -4.8 -9.3 7.5 -17.5 14.5 -9.8 3.7 4.1 3.6 8.1 -0.1 11.9 -3 3 -7.7 3.7 -11.1 1.8z"/>
  <path d="M286.8 181.9 c-12.3 -12.3 -22.9 -23.5 -23.6 -25.1 -2.6 -6.1 1.8 -12.2 8.8 -12.3 3.7 0 4.5 0.7 26.5 22.8 14.9 14.9 22.9 23.5 23.2 25.4 0.9 3.5 -1.7 8.9 -4.9 10.4 -5.9 2.6 -6.4 2.2 -30 -21.1z"/>
 </g>
</svg>