<?xml version="1.0" encoding="utf-8"?>
<!DOCTYPE svg PUBLIC "-//W3C//DTD SVG 1.0//EN" "http://www.w3.org/TR/2001/REC-SVG-20010904/DTD/svg10.dtd">
<svg version="1.0" xmlns="http://www.w3.org/2000/svg" width="500px" height="500px" viewBox="0 0 500 500" preserveAspectRatio="xMidYMid meet">
 <g fill="#ffffff" stroke="#fffbfb" stroke-width="0.977">
  <path d="M89.4 460.8 c-4.2 -1.2 -9.3 -6.7 -10.4 -11.2 -0.5 -2.1 -0.9 -47.9 -0.9 -103.1 l0 -99.2 -3.6 -1.2 c-17.1 -5.5 -32 -20 -39.2 -37.9 -2.3 -6.1 -2.6 -7.7 -2.6 -20.7 0 -13.6 0.1 -14.5 3 -21.7 7.1 -17.5 21.7 -31.3 38.8 -36.8 l3.6 -1.3 0 -36.7 c0 -20.2 0.5 -38.5 0.9 -40.6 0.5 -2.1 2.3 -5.3 4.1 -7 6.3 -6.4 15 -6.4 21.4 0.1 l3.4 3.5 0.5 40.1 0.5 40.1 6.8 2.7 c18.8 7.7 33.1 23.6 38 42.6 2.1 7.6 2.1 22.3 0 29.9 -4.9 18.9 -19.1 34.9 -38 42.6 l-6.8 2.7 -0.5 102.6 -0.5 102.6 -3.4 3.5 c-1.9 1.9 -4.9 3.9 -6.8 4.4 -3.9 1.1 -4.3 1.1 -8.3 -0.1z m18.3 -244.8 c5.9 -2.9 11.7 -8.8 14.6 -14.6 3.2 -6.6 3.2 -21.1 0 -27.7 -5.5 -11 -15.9 -17.4 -28.5 -17.4 -18.4 0 -31.3 12.9 -31.3 31.3 0 13.3 7.3 24.7 18.8 29.2 7.2 2.8 19.8 2.5 26.4 -0.7z"/>
  <path d="M245.7 460.9 c-3.4 -1.1 -7 -4.3 -9.2 -8.3 -1.5 -2.5 -1.7 -7.8 -2 -41.7 l-0.3 -38.8 -3.6 -1.2 c-22.2 -7.1 -39.2 -27.8 -42.1 -51 -3.5 -28.8 14.6 -57.1 42.2 -66 l3.6 -1.3 0 -98.7 c0 -64.4 0.4 -100.4 1.1 -103.2 2 -8.5 10.3 -13.9 18.3 -11.8 4.8 1.4 9.9 6.6 11 11.4 0.5 2.1 0.9 47.9 0.9 103 l0 99.2 5.9 2.1 c13.8 5.1 26.9 16.8 33.7 30.3 5.3 10.5 6.6 17.4 6.2 30.4 -0.6 13.2 -2.9 20.5 -10.1 31.3 -7.3 10.8 -19.8 20.4 -31.9 24.3 l-3.7 1.2 0 36.7 c0 20.2 -0.5 38.5 -0.9 40.6 -1.2 4.7 -6.3 10.1 -10.8 11.3 -3.9 1.1 -4.4 1.1 -8.2 0z m16.4 -119.2 c6.5 -2.4 13 -8.4 16.2 -15 2.1 -4.1 2.4 -6.3 2.4 -14.2 0 -11 -2 -15.9 -9 -22.9 -8.3 -8.1 -22.2 -10.7 -34 -6.3 -18.1 6.7 -25.2 31 -13.9 47.4 3.5 5 10.7 10.5 15.7 12 5.8 1.7 16.7 1.2 22.5 -1z"/>
  <path d="M402 460.9 c-4 -1.3 -9.2 -6.6 -10.4 -10.7 -0.6 -2.1 -1 -40.7 -1 -103.2 l0 -99.7 -3.6 -1.3 c-16.8 -5.4 -31.9 -19.7 -38.4 -36.2 -12.7 -32.6 5.1 -70 38.4 -80.8 l3.6 -1.3 0 -37.2 c0 -21.6 0.4 -38.8 1 -40.6 1.3 -4.6 6.4 -9.7 10.9 -10.9 6.7 -1.8 13.8 1.7 17.3 8.6 0.8 1.5 1.1 14.2 1.1 40.8 l0 38.6 2.7 1.2 c16.4 6.6 25.4 13.2 33 23.7 21.8 30.7 10.9 74.1 -22.6 90.2 -4.3 2.1 -9 4.3 -10.4 4.9 l-2.7 1.1 0 101.4 0 101.5 -2.1 3.2 c-4.2 6.2 -10.6 8.8 -16.8 6.8z m16.5 -244.2 c11.6 -4.3 19 -15.7 19 -29.2 0 -18.4 -12.9 -31.3 -31.3 -31.3 -18.4 0 -31.3 12.9 -31.3 31.2 0 14.2 7.5 25.2 20.3 29.9 5.7 2.1 16.8 1.9 23.1 -0.6z"/>
 </g>
</svg>