<!DOCTYPE svg PUBLIC "-//W3C//DTD SVG 1.1//EN" "http://www.w3.org/Graphics/SVG/1.1/DTD/svg11.dtd">
<!-- Uploaded to: SVG Repo, www.svgrepo.com, Transformed by: SVG Repo Mixer Tools -->
<svg fill="#d34d4d" height="800px" width="800px" version="1.1" xmlns="http://www.w3.org/2000/svg" viewBox="0 0 512 512" xmlns:xlink="http://www.w3.org/1999/xlink" enable-background="new 0 0 512 512" stroke="#d34d4d" stroke-width="0.00512" transform="matrix(-1, 0, 0, 1, 0, 0)">
<g id="SVGRepo_bgCarrier" stroke-width="0"/>
<g id="SVGRepo_tracerCarrier" stroke-linecap="round" stroke-linejoin="round"/>
<g id="SVGRepo_iconCarrier"> <g> <path d="m480.6,165.7h-216.4v-46.3h216.4c11.3,0 20.4-9.1 20.4-20.4 0-11.3-9.1-20.4-20.4-20.4h-236.8c-11.3,0-20.4,9.1-20.4,20.4v66.7h-69.4c-11.3,0-20.4,9.1-20.4,20.4v42.5l-93.2-45c-8.9-4.9-28.4-1.6-29.3,18.4v195.1c1.2,19.3 19.5,23.5 29.3,18.4l93.2-45v42.5c0,11.3 9.1,20.4 20.4,20.4h326.7c11.3,0 20.4-9.1 20.4-20.4v-226.8c-0.1-11.3-9.2-20.5-20.5-20.5zm-428.8,198.9v-130.1l81.7,39.4v51.3l-81.7,39.4zm408.4,28h-285.9v-186h285.8v186z"/> </g> </g>
</svg>