<?xml version="1.0" encoding="utf-8"?>
<!DOCTYPE svg PUBLIC "-//W3C//DTD SVG 1.0//EN" "http://www.w3.org/TR/2001/REC-SVG-20010904/DTD/svg10.dtd">
<svg version="1.0" xmlns="http://www.w3.org/2000/svg" width="505px" height="505px" viewBox="0 0 505 505" preserveAspectRatio="xMidYMid meet">
 <g fill="#ffffff" stroke="#f7f7f7" stroke-width="0.986">
  <path d="M119.8 502.1 c-4.5 -2.1 -9.8 -6.9 -11.9 -11 -0.8 -1.7 -25.2 -91.5 -54.1 -199.7 -40.9 -152.5 -52.8 -198.1 -52.8 -202.4 0 -3.4 0.8 -7.3 1.9 -9.6 2.1 -4.7 9.8 -11.8 14.2 -13.2 1.8 -0.6 51.3 -13.9 110.1 -29.7 79.5 -21.2 107.9 -29.2 110.5 -31 5 -3.5 8.4 -4.5 14.4 -4.5 3.8 0 37 8.5 119.5 30.6 62.8 16.9 116.4 31.6 119 32.7 8.3 3.7 13.4 12 13.5 21.6 0 4.1 -12.3 51.7 -52.3 200.7 -28.7 107.3 -53 197.1 -53.9 199.3 -1.9 5.1 -9.6 12.3 -15 13.9 -2.1 0.7 -5.6 1.2 -7.7 1.2 -2.1 0 -28.9 -6.7 -59.6 -15 -30.7 -8.2 -56.4 -14.9 -57.2 -14.8 -0.8 0 -29 7.4 -62.5 16.4 -65.1 17.5 -68.3 18 -76 14.5z m125.2 -44 c61.9 -16.6 113.8 -30.7 115.3 -31.3 3.6 -1.4 5.6 -4.4 5.6 -8.1 0 -2.4 -96.7 -365.6 -103.7 -389.4 -1.6 -5.4 -2.5 -7 -4.8 -8.2 -1.6 -0.8 -3.6 -1.5 -4.5 -1.5 -2.2 0 -230.2 61.1 -232.4 62.2 -2.4 1.3 -3.7 4.1 -3.7 7.5 0 3.1 103.9 391.8 105.5 394.8 1.4 2.6 3.8 3.8 7.3 3.9 1.7 0 53.6 -13.5 115.4 -30.1z m134.6 25.6 c1.6 -0.8 3.2 -2.2 3.5 -3.1 2 -5 105.1 -392.2 105.1 -394.3 0 -3.5 -1.5 -6.2 -4.1 -7.6 -2.2 -1.2 -206.2 -56.1 -206.7 -55.7 -0.1 0.2 1 4.6 2.4 10.1 2.6 9.7 2.7 9.8 7.2 12.6 3.9 2.5 5.4 2.8 11.1 2.7 7.3 -0.3 12.1 1.6 16.8 6.5 10.7 11.1 5.6 30.7 -10.8 42.7 l-5.9 4.2 1.9 6.5 c1 3.6 2.3 8.4 2.9 10.7 l1 4 6.7 -3.5 c6.2 -3.3 7.1 -3.5 14.5 -3.1 9.5 0.4 16.8 3.5 22.7 9.5 l4 3.9 5.3 -1.5 c11.1 -3 22.6 -0.2 31.1 7.7 6.3 5.8 8.6 10.7 9.2 19.3 1.3 20 -13.5 40.7 -37.8 52.9 -8.3 4.1 -18.1 8 -24.5 9.8 -2.8 0.7 -4.6 1.8 -4.6 2.6 0 0.8 11.5 44.6 25.6 97.3 18.2 68.3 25.6 97.3 25.6 101 0 9.2 -4.8 17.4 -12.6 21.3 -2.6 1.3 -21.2 6.7 -41.3 12 -20.2 5.3 -36.8 10 -36.8 10.3 0 0.7 80.7 22.5 83.6 22.6 1.3 0.1 3.6 -0.6 5 -1.4z m-37.6 -284.5 c22.8 -9 38.5 -25.1 39.5 -40.4 0.4 -7.2 -2 -11.2 -8.4 -14.1 -5.9 -2.7 -11.5 -2 -17.9 2.1 -2.7 1.7 -5.6 3.1 -6.7 3.1 -3.1 0 -6.2 -2.8 -8.5 -7.5 -1.1 -2.5 -3.6 -5.6 -5.5 -7.1 -3 -2.3 -4.4 -2.7 -10.2 -2.7 -6 0 -7 0.3 -9.7 2.9 -5.7 5.5 -5.7 6.8 0.4 29.8 3.1 11.3 5.9 21.7 6.5 23 1.7 4 10 13.9 11.6 13.9 0.9 -0.1 4.8 -1.4 8.8 -2.9z m-44 -117.2 c5.9 -6.4 8.5 -13.9 5.5 -16.9 -1.8 -1.8 -7.2 -1.4 -10.9 0.8 l-3.5 2.1 2 7.6 c2.8 10.6 2.9 10.7 6.9 6.4z"/>
  <path d="M303.8 419.9 c-21.1 -7.1 -35.3 -21.5 -36.3 -36.8 -0.9 -14.2 10.4 -24.5 25.1 -22.7 4 0.5 5.3 0.2 6.4 -1.1 2 -2.3 10.8 -6.2 14 -6.2 18 -0.1 28 18.3 21.1 38.6 -1.2 3.6 -3.7 9.1 -5.6 12.2 -4 6.7 -13.4 16.9 -16.3 17.7 -1.1 0.2 -4.8 -0.5 -8.4 -1.7z m7.7 -19 c8.9 -10.8 11.7 -26.5 5.5 -30.7 -3.2 -2.1 -7.2 -0.4 -9.8 3.9 -3.6 6 -7.5 7.2 -12.8 3.6 -3.6 -2.4 -6.2 -2.5 -9.2 -0.4 -6.8 4.7 2.5 18.6 16.8 25 5.8 2.7 6.1 2.6 9.5 -1.5z"/>
  <path d="M197.3 331 c-40.3 -13.7 -63.6 -31.2 -76.5 -57.3 -5.8 -11.9 -7.6 -19.4 -7.1 -30.2 0.3 -7.1 0.9 -9.6 3.6 -14.9 10 -20.3 36.3 -29.5 57.7 -20.3 l4.9 2.2 1.6 -2.5 c5.6 -9.1 19.7 -17.8 31.9 -19.8 16 -2.6 31.9 4.6 40.6 18.4 6.2 9.7 8.6 19.2 8.6 34 -0.1 20.3 -4.8 35.9 -16.8 55.2 -10.4 16.6 -30.2 39.6 -34.1 39.4 -1.1 0 -7.5 -1.9 -14.3 -4.2z m18.9 -21.6 c14.3 -17.4 24.6 -34.7 28 -47.5 2.1 -7.9 3 -26.1 1.5 -33 -2.3 -10.8 -8.5 -20.4 -14.8 -22.9 -15.8 -5.9 -32.1 0.9 -39.3 16.6 -2.6 5.6 -5.3 8.3 -8.7 8.3 -1.1 0 -4.5 -1.8 -7.8 -3.9 -6.9 -4.7 -10.8 -5.9 -19.4 -5.9 -11.4 0 -21.6 6.7 -25.2 16.5 -5.6 16 7.8 43.1 28.8 58.1 10.8 7.7 42 21.9 48.2 22 1.3 0 4.3 -2.9 8.6 -8.1z"/>
  <path d="M78.4 149.5 c-10.7 -3.4 -24.5 -12.2 -29.6 -18.9 -14.7 -19.3 -6 -41.8 15.8 -40.6 5.3 0.2 6.6 -0.1 10 -2.4 5.2 -3.6 8.6 -4.7 14 -4.7 13.6 0.1 23 12.5 21.6 28.6 -0.9 10.9 -7.7 24.7 -17 34.2 -5.5 5.7 -7.4 6.2 -14.8 3.8z m7.2 -19 c7.6 -9.8 10.8 -21.5 7.6 -28.2 -1.4 -3 -2.3 -3.6 -4.6 -3.6 -2.9 0 -5.3 2.1 -9 7.3 -2.5 3.6 -5.8 4.1 -10.1 1.7 -6.3 -3.6 -12.3 -2.3 -12.3 3 0 7.1 7.6 15.9 18.1 20.7 3.4 1.5 6.3 2.8 6.7 2.9 0.3 0 2 -1.7 3.6 -3.6z"/>
 </g>
</svg>