<?xml version="1.0" encoding="utf-8"?>
<!DOCTYPE svg PUBLIC "-//W3C//DTD SVG 1.0//EN" "http://www.w3.org/TR/2001/REC-SVG-20010904/DTD/svg10.dtd">
<svg version="1.0" xmlns="http://www.w3.org/2000/svg" width="504px" height="504px" viewBox="0 0 504 504" preserveAspectRatio="xMidYMid meet">
 <g fill="#ffffff" stroke="#ffffff" stroke-width="0.984">
  <path d="M64.9 501.6 c-2 -0.7 -4.8 -2.2 -6.4 -3.3 -5.4 -3.9 -53.4 -52.9 -55 -56.2 -0.9 -1.9 -2 -5.9 -2.2 -9.2 -1.1 -11.7 -6.1 -6 88.7 -101 47.2 -47.3 87.4 -86.9 89.5 -88.1 l3.7 -2.1 -14.1 -14.2 c-7.8 -7.8 -15.4 -14.8 -16.8 -15.6 -2.6 -1.4 -3.4 -1.3 -11.3 1 -11.8 3.4 -19.5 4.5 -32.4 4.5 -55.9 0 -102.7 -43.1 -107.5 -99.3 -0.9 -9.8 0 -24.8 2 -31.8 1.4 -5.4 7.2 -11.2 12 -12.1 8.7 -1.7 8.9 -1.5 38.1 27.6 27.1 26.9 29.6 28.9 34.7 27.7 1.2 -0.3 11.1 -9.5 22 -20.6 21 -21.1 21.7 -22 18.9 -27.6 -0.6 -1.2 -13 -14.1 -27.5 -28.7 -28.5 -28.6 -28.7 -28.9 -27.1 -37.6 0.9 -4.8 6.7 -10.6 12.1 -12 7 -2 22 -2.9 31.8 -2 35.8 3.1 67.2 23.1 85.2 54.5 8.9 15.4 13 29.9 13.8 48.4 0.6 14.4 -0.4 23.1 -4.3 36.6 -1.9 6.7 -2.2 8.9 -1.3 10.9 0.6 1.4 11.2 12.7 23.6 25.1 l22.6 22.6 67.3 -67.3 67.3 -67.3 2.9 -14.4 c2 -10.1 3.3 -15 4.7 -16.4 3 -3.2 69.9 -33.2 72.6 -32.5 3.1 0.7 30.2 28.4 30.2 30.6 0 3.1 -30.5 69.7 -32.9 71.9 -1.5 1.4 -6.3 2.8 -16.4 4.7 l-14.4 2.9 -67.3 67.3 -67.3 67.4 95.7 95.2 c110.9 110.3 102.2 100.1 102.2 120.3 0 10.8 -0.2 11.7 -3.2 17.8 -10.3 21 -35 29.4 -55.2 18.9 -6.6 -3.4 -13.9 -10.4 -94.6 -90.6 l-87.4 -86.7 -1.8 3.1 c-0.9 1.8 -40.1 41.6 -87 88.7 -68.4 68.6 -86.2 85.9 -90.2 87.8 -5.5 2.7 -12.6 3.1 -18.3 1z m12.7 -15.8 c1.5 -0.8 6.2 -5 10.5 -9.4 l7.9 -8 -30.3 -30.3 -30.2 -30.2 -8.8 8.9 c-8.8 8.9 -10.7 12.2 -9.5 16.5 0.3 1.2 12.2 13.8 26.5 28.1 27.7 27.6 27.8 27.7 34 24.4z m392.6 -0.1 c10.5 -3.2 17.1 -12.4 17.1 -24.1 0 -4.2 -0.7 -7.9 -2.1 -10.8 -1.5 -3.4 -22.9 -25.4 -96.2 -98.6 -51.8 -51.9 -94.6 -94.3 -95.2 -94.3 -0.5 0 -8.4 7.4 -17.3 16.3 l-16.3 16.3 1.5 4.1 c1.2 3.2 19.3 21.9 92.1 94.9 49.9 50 92.1 91.7 94 92.9 7.6 4.8 14.1 5.7 22.3 3.2z m-352 -39.4 l10.3 -10.3 -30.3 -30.3 -30.2 -30.2 -10.5 10.6 -10.6 10.5 30 30 c16.5 16.5 30.2 30 30.5 30 0.3 0 5.1 -4.6 10.8 -10.3z m75 -75 c36.5 -36.5 53.4 -54.1 54.4 -56.6 4.1 -10.1 1.9 -14 -22.2 -37.9 -20.1 -19.8 -22.9 -22 -29.4 -22 -7.1 0 -7.8 0.6 -62.7 55.4 -29.4 29.3 -53.5 53.7 -53.5 54.3 0 1.3 58.3 59.6 59.6 59.6 0.6 0 24.8 -23.8 53.8 -52.9z m147.5 -183.8 l91.1 -90.9 14.1 -2.9 14.1 -2.9 12.9 -28.4 12.9 -28.4 -8 -7.9 -7.9 -8 -28.4 12.9 -28.4 12.9 -2.9 14.1 -2.9 14.1 -91.2 91.3 -91.2 91.3 11.8 11.8 c6.5 6.5 12 11.8 12.3 11.8 0.2 0 41.4 -41 91.5 -91z m-94.5 22.5 c0 -0.6 -10.4 -11.4 -23.2 -24.1 -12.7 -12.7 -24 -24.7 -24.9 -26.6 -3.4 -6.6 -3.4 -10.6 0 -23.3 3.1 -10.8 3.2 -12.7 3.3 -26.9 0 -11.9 -0.4 -16.7 -1.9 -22.1 -8.9 -33 -32.1 -57.3 -64.3 -67.1 -7.9 -2.4 -10.1 -2.7 -25.4 -2.7 -9.2 -0.1 -17.6 0.3 -18.6 0.7 -1.7 0.7 1.9 4.6 24.7 27.6 22.1 22.2 26.9 27.6 28.4 31.5 2.4 6.2 1.6 14.9 -1.8 20.7 -3.2 5.2 -41.4 43.2 -45.9 45.5 -1.9 0.9 -5.9 2 -9.2 2.2 -10.7 1 -11.9 0.2 -41.8 -29.5 -22.9 -22.8 -26.9 -26.4 -27.6 -24.7 -0.4 1 -0.8 9.2 -0.8 18.1 0 14 0.3 17.3 2.3 24 9.5 32.9 33.7 56.9 66.2 65.8 7 1.9 10.6 2.3 23.5 2.3 14.2 -0.1 16 -0.3 26.9 -3.3 12.7 -3.4 16.6 -3.4 23.3 -0.1 1.9 1 12.9 11 24.5 22.3 14.9 14.5 22.2 21 25.1 22 l4 1.6 16.5 -16.3 c9.1 -9 16.4 -16.7 16.4 -17.3z"/>
 </g>
</svg>