<?xml version="1.0" encoding="utf-8"?>
<!DOCTYPE svg PUBLIC "-//W3C//DTD SVG 1.0//EN" "http://www.w3.org/TR/2001/REC-SVG-20010904/DTD/svg10.dtd">
<svg version="1.0" xmlns="http://www.w3.org/2000/svg" width="512px" height="512px" viewBox="0 0 512 512" preserveAspectRatio="xMidYMid meet">
 <g fill="#ffffff" stroke="#fdfdfd" stroke-width="1">
  <path d="M162.5 511 c-1.2 -0.4 -2.6 -1.5 -3.3 -2.3 -0.7 -0.8 -6.2 -30.2 -12.2 -65.3 -6.1 -35.2 -11.3 -64.8 -11.5 -65.9 -0.3 -1.1 -3.2 -4.2 -6.5 -7 -3.3 -2.7 -9.2 -8.7 -13.2 -13.3 -39.5 -45 -49.4 -107.9 -25.7 -162.5 8.2 -18.9 18.2 -33.2 34.5 -49.5 6.3 -6.2 11.4 -11.8 11.4 -12.5 0 -0.7 5 -29.8 11 -64.7 9.3 -53.6 11.3 -63.7 13 -65.5 2 -2 2.9 -2 72 -2 64.4 0 70.1 0.1 71.6 1.7 1.3 1.3 4.6 18.1 13.1 67 l11.5 65.3 10.1 10 c26.8 26.4 41.4 55.4 46.4 92.2 1.2 8.5 2.1 12.3 3 12.3 1 0 1.3 -2.3 1.3 -8.7 0 -10 1 -14.6 4.3 -19.4 9.5 -14.2 31.4 -12.7 38.6 2.6 2 4.2 2.1 6 2.1 32 0 22.7 -0.3 28.2 -1.6 31.3 -4.2 10 -15.5 15.7 -26.1 13.1 -3.6 -1 -6.1 -2.6 -9.9 -6.3 -5.9 -6 -7.4 -10.4 -7.4 -22.5 0 -6.2 -0.3 -8.1 -1.4 -8.1 -1 0 -1.6 2 -2.1 6.8 -2.6 26.4 -13 54 -28.2 75.5 -3.2 4.5 -11.3 13.6 -17.9 20.3 l-12.1 12.1 -11.2 64.9 c-6.2 35.6 -11.7 65.6 -12.1 66.5 -0.5 0.9 -2.4 1.9 -4.1 2.3 -4.7 0.9 -135.1 0.6 -137.4 -0.4z m140.1 -68.5 c5.1 -29.7 9.2 -54.1 9.1 -54.1 -0.1 -0.1 -5.4 2.3 -11.7 5.5 -12.9 6.3 -24.2 10.2 -38.7 13.3 -13.3 2.9 -43.3 3.2 -56.8 0.5 -13.7 -2.7 -29.9 -8.2 -42 -14.2 -6 -3 -11 -5.3 -11.2 -5.2 -0.1 0.2 3.9 24.7 9 54.5 l9.2 54.2 61.9 -0.2 62 -0.3 9.2 -54z m-45.8 -48.1 c28.8 -5 56.2 -19.9 77.2 -42.1 33.5 -35.2 46.1 -84 34 -131.8 -6.7 -26.5 -22.7 -52.8 -42 -69.3 -4.1 -3.4 -8.2 -6.9 -9 -7.6 -11.9 -10.3 -36.3 -21.3 -57.3 -25.8 -14.5 -3.1 -41.9 -3.1 -55.9 0 -21.6 4.7 -39.7 12.9 -56.4 25.5 -28 21.2 -45.8 49.3 -53.6 84.5 -3.1 14 -3.1 41.4 0 55.9 13.1 60.8 61.2 104.8 122.7 112.2 10 1.2 28.8 0.5 40.3 -1.5z m161.2 -109.4 c1.1 -1.1 2.2 -3 2.5 -4.2 0.3 -1.3 0.5 -13.5 0.3 -27.2 -0.3 -24.7 -0.3 -24.8 -2.7 -26.7 -3.4 -2.8 -9.6 -2.5 -12.6 0.6 l-2.5 2.4 0 26.1 0 26.1 2.5 2.4 c3.1 3.2 9.6 3.4 12.5 0.5z m-234.2 -175.9 c40.4 -12.8 81 -9.6 118 9.3 5.8 3 10.7 5.4 10.8 5.3 0.1 -0.1 -4.2 -24.8 -9.4 -54.9 l-9.7 -54.8 -61.7 0 c-34 0 -61.8 0.3 -61.8 0.7 0 0.8 -17.9 104 -18.5 106.9 -0.4 1.9 0.9 1.5 11.1 -3.6 6.3 -3.2 15.9 -7.2 21.2 -8.9z"/>
  <path d="M197.5 463.5 c-3 -3 -3.1 -5.4 -0.4 -8.9 l2 -2.6 32.9 0 32.9 0 2 2.6 c2.7 3.5 2.6 5.9 -0.4 8.9 l-2.4 2.5 -32.1 0 -32.1 0 -2.4 -2.5z"/>
  <path d="M222 382.8 c-68.8 -5 -121.1 -64.4 -117.6 -133.3 3.5 -69.8 62.6 -124 132.1 -121.2 33.5 1.4 61.3 13.6 85 37.2 27.2 27 40.8 64 37.4 101.1 -6.6 70.4 -66.6 121.3 -136.9 116.2z m3 -25.2 c0 -12.3 0 -12.5 2.6 -14.5 3.5 -2.7 5.9 -2.6 8.9 0.4 2.4 2.3 2.5 3 2.5 14.5 l0 12.2 2.8 -0.6 c1.5 -0.3 5.2 -0.8 8.2 -1.2 15 -1.8 35.3 -10.3 49.1 -20.5 4.3 -3.3 7.9 -6.2 7.9 -6.6 0 -0.4 -3.8 -4.6 -8.5 -9.4 -4.7 -4.7 -8.5 -9.4 -8.5 -10.3 0 -2.3 5.3 -7.6 7.6 -7.6 0.9 0 5.6 3.8 10.3 8.5 4.8 4.7 9 8.5 9.4 8.5 1 0 9.1 -11.1 13.5 -18.5 7.4 -12.6 12.3 -27.6 14.6 -45.2 l0.6 -4.3 -11.1 0 c-10.5 0 -14.4 -0.8 -16.1 -3.4 -1.4 -2.1 -0.8 -6.6 1.2 -8.6 1.8 -1.8 3.3 -2 14.1 -2 l12 0 -0.6 -4.7 c-2 -15.6 -6.3 -29.5 -13 -42.2 -4.8 -9 -13.3 -21 -14.9 -21.1 -0.5 0 -4.7 3.6 -9.2 8 -6.6 6.5 -8.7 8 -11.2 8 -3.2 0 -7.2 -3.8 -7.2 -6.8 0 -0.8 3.8 -5.4 8.5 -10.1 4.7 -4.8 8.5 -9.2 8.5 -9.7 -0.1 -1.2 -11 -9.3 -18.6 -13.7 -11.8 -6.9 -29 -12.5 -43.6 -14.3 l-5.8 -0.6 0 11.6 c0 11.1 -0.1 11.8 -2.5 14.1 -3 3 -5.4 3.1 -8.9 0.4 -2.5 -2 -2.6 -2.3 -2.6 -14 l0 -11.9 -2.5 0 c-4.7 0 -22 3.8 -29.5 6.5 -12.2 4.5 -19.8 8.6 -31.3 17.3 l-5.8 4.4 8.6 8.9 c9.1 9.5 10.2 12.2 6.5 15.9 -4 4 -7.3 2.7 -15.9 -6 -4.4 -4.4 -8.4 -8 -8.9 -8 -1.4 0 -10.3 12.3 -14.6 20.1 -6.6 12.1 -13.6 35.4 -13.6 45.4 l0 2.5 12 0 c10.7 0 12.2 0.2 14 2 2.9 2.9 2.6 7.4 -0.6 9.9 -2.4 1.9 -4.1 2.1 -14.1 2.1 l-11.5 0 0.7 6.3 c2.4 20.6 15.3 50.2 26.4 60.1 2.1 1.9 2.1 1.9 8.9 -5.1 8.7 -9.1 11.1 -10.7 14.5 -9.4 2.9 1.1 4.7 3.9 4.7 7.1 0 1.2 -3.3 5.5 -8.3 10.8 l-8.4 8.7 3.1 2.6 c14.4 12 37.1 22 56.1 24.8 10.5 1.5 9.5 2.7 9.5 -11.3z"/>
  <path d="M248.3 281.8 l-23.3 -23.2 0 -24.1 c0 -24 0 -24.2 2.3 -26.3 3.2 -3 7.1 -2.8 9.6 0.4 2 2.5 2.1 3.9 2.1 23.7 l0 21.1 21 21.1 c18 18.2 21 21.6 21 24.2 0 3.7 -2.7 6.3 -6.5 6.3 -2.4 0 -6.6 -3.7 -26.2 -23.2z"/>
  <path d="M197.1 56.4 c-2.7 -3.5 -2.6 -5.9 0.4 -8.9 l2.4 -2.5 32.1 0 32.1 0 2.4 2.5 c1.4 1.3 2.5 3.4 2.5 4.5 0 1.1 -1.1 3.2 -2.5 4.5 l-2.4 2.5 -32.5 0 -32.5 0 -2 -2.6z"/>
 </g>
</svg>